<svg width="218" height="42" viewBox="0 0 218 42" fill="none" xmlns="http://www.w3.org/2000/svg">
<path d="M48.5352 29.7656C47.5859 30.9023 46.2441 31.7871 44.5098 32.4199C42.7754 33.041 40.8535 33.3516 38.7441 33.3516C36.5293 33.3516 34.584 32.8711 32.9082 31.9102C31.2441 30.9375 29.9551 29.5312 29.041 27.6914C28.1387 25.8516 27.6758 23.6895 27.6523 21.2051V19.4648C27.6523 16.9102 28.0801 14.7012 28.9355 12.8379C29.8027 10.9629 31.0449 9.5332 32.6621 8.54883C34.291 7.55273 36.1953 7.05469 38.375 7.05469C41.4102 7.05469 43.7832 7.78125 45.4941 9.23438C47.2051 10.6758 48.2188 12.7793 48.5352 15.5449H43.4023C43.168 14.0801 42.6465 13.0078 41.8379 12.3281C41.041 11.6484 39.9395 11.3086 38.5332 11.3086C36.7402 11.3086 35.375 11.9824 34.4375 13.3301C33.5 14.6777 33.0254 16.6816 33.0137 19.3418V20.9766C33.0137 23.6602 33.5234 25.6875 34.543 27.0586C35.5625 28.4297 37.0566 29.1152 39.0254 29.1152C41.0059 29.1152 42.418 28.6934 43.2617 27.8496V23.4375H38.4629V19.5527H48.5352V29.7656ZM61.2441 33.3516C58.4551 33.3516 56.1816 32.4961 54.4238 30.7852C52.6777 29.0742 51.8047 26.7949 51.8047 23.9473V23.4551C51.8047 21.5449 52.1738 19.8398 52.9121 18.3398C53.6504 16.8281 54.6934 15.668 56.041 14.8594C57.4004 14.0391 58.9473 13.6289 60.6816 13.6289C63.2832 13.6289 65.3281 14.4492 66.8164 16.0898C68.3164 17.7305 69.0664 20.0566 69.0664 23.0684V25.1426H56.9551C57.1191 26.3848 57.6113 27.3809 58.4316 28.1309C59.2637 28.8809 60.3125 29.2559 61.5781 29.2559C63.5352 29.2559 65.0645 28.5469 66.166 27.1289L68.6621 29.9238C67.9004 31.002 66.8691 31.8457 65.5684 32.4551C64.2676 33.0527 62.8262 33.3516 61.2441 33.3516ZM60.6641 17.7422C59.6562 17.7422 58.8359 18.082 58.2031 18.7617C57.582 19.4414 57.1836 20.4141 57.0078 21.6797H64.0742V21.2754C64.0508 20.1504 63.7461 19.2832 63.1602 18.6738C62.5742 18.0527 61.7422 17.7422 60.6641 17.7422ZM71.1758 23.3145C71.1758 21.4277 71.5391 19.7461 72.2656 18.2695C72.9922 16.793 74.0352 15.6504 75.3945 14.8418C76.7656 14.0332 78.3535 13.6289 80.1582 13.6289C82.7246 13.6289 84.8164 14.4141 86.4336 15.9844C88.0625 17.5547 88.9707 19.6875 89.1582 22.3828L89.1934 23.6836C89.1934 26.6016 88.3789 28.9453 86.75 30.7148C85.1211 32.4727 82.9355 33.3516 80.1934 33.3516C77.4512 33.3516 75.2598 32.4727 73.6191 30.7148C71.9902 28.957 71.1758 26.5664 71.1758 23.543V23.3145ZM76.2559 23.6836C76.2559 25.4883 76.5957 26.8711 77.2754 27.832C77.9551 28.7812 78.9277 29.2559 80.1934 29.2559C81.4238 29.2559 82.3848 28.7871 83.0762 27.8496C83.7676 26.9004 84.1133 25.3887 84.1133 23.3145C84.1133 21.5449 83.7676 20.1738 83.0762 19.2012C82.3848 18.2285 81.4121 17.7422 80.1582 17.7422C78.916 17.7422 77.9551 18.2285 77.2754 19.2012C76.5957 20.1621 76.2559 21.6562 76.2559 23.6836Z" fill="#3E64C5"/>
<path d="M98.2637 33H92.9902V7.40625H98.2637V33ZM107.598 13.9805L107.756 16.1074C109.104 14.4551 110.926 13.6289 113.223 13.6289C115.672 13.6289 117.354 14.5957 118.268 16.5293C119.604 14.5957 121.508 13.6289 123.98 13.6289C126.043 13.6289 127.578 14.2324 128.586 15.4395C129.594 16.6348 130.098 18.4395 130.098 20.8535V33H125V20.8711C125 19.793 124.789 19.0078 124.367 18.5156C123.945 18.0117 123.201 17.7598 122.135 17.7598C120.611 17.7598 119.557 18.4863 118.971 19.9395L118.988 33H113.908V20.8887C113.908 19.7871 113.691 18.9902 113.258 18.498C112.824 18.0059 112.086 17.7598 111.043 17.7598C109.602 17.7598 108.559 18.3574 107.914 19.5527V33H102.834V13.9805H107.598ZM133.227 23.3145C133.227 21.4277 133.59 19.7461 134.316 18.2695C135.043 16.793 136.086 15.6504 137.445 14.8418C138.816 14.0332 140.404 13.6289 142.209 13.6289C144.775 13.6289 146.867 14.4141 148.484 15.9844C150.113 17.5547 151.021 19.6875 151.209 22.3828L151.244 23.6836C151.244 26.6016 150.43 28.9453 148.801 30.7148C147.172 32.4727 144.986 33.3516 142.244 33.3516C139.502 33.3516 137.311 32.4727 135.67 30.7148C134.041 28.957 133.227 26.5664 133.227 23.543V23.3145ZM138.307 23.6836C138.307 25.4883 138.646 26.8711 139.326 27.832C140.006 28.7812 140.979 29.2559 142.244 29.2559C143.475 29.2559 144.436 28.7871 145.127 27.8496C145.818 26.9004 146.164 25.3887 146.164 23.3145C146.164 21.5449 145.818 20.1738 145.127 19.2012C144.436 18.2285 143.463 17.7422 142.209 17.7422C140.967 17.7422 140.006 18.2285 139.326 19.2012C138.646 20.1621 138.307 21.6562 138.307 23.6836ZM143.211 6H148.748L143.879 11.4492H139.748L143.211 6ZM161.211 26.7949L164.744 13.9805H170.053L163.637 33H158.785L152.369 13.9805H157.678L161.211 26.7949ZM180.811 33.3516C178.021 33.3516 175.748 32.4961 173.99 30.7852C172.244 29.0742 171.371 26.7949 171.371 23.9473V23.4551C171.371 21.5449 171.74 19.8398 172.479 18.3398C173.217 16.8281 174.26 15.668 175.607 14.8594C176.967 14.0391 178.514 13.6289 180.248 13.6289C182.85 13.6289 184.895 14.4492 186.383 16.0898C187.883 17.7305 188.633 20.0566 188.633 23.0684V25.1426H176.521C176.686 26.3848 177.178 27.3809 177.998 28.1309C178.83 28.8809 179.879 29.2559 181.145 29.2559C183.102 29.2559 184.631 28.5469 185.732 27.1289L188.229 29.9238C187.467 31.002 186.436 31.8457 185.135 32.4551C183.834 33.0527 182.393 33.3516 180.811 33.3516ZM180.23 17.7422C179.223 17.7422 178.402 18.082 177.77 18.7617C177.148 19.4414 176.75 20.4141 176.574 21.6797H183.641V21.2754C183.617 20.1504 183.312 19.2832 182.727 18.6738C182.141 18.0527 181.309 17.7422 180.23 17.7422ZM196.895 33H191.797V13.9805H196.895V33ZM191.498 9.05859C191.498 8.29688 191.75 7.66992 192.254 7.17773C192.77 6.68555 193.467 6.43945 194.346 6.43945C195.213 6.43945 195.904 6.68555 196.42 7.17773C196.936 7.66992 197.193 8.29688 197.193 9.05859C197.193 9.83203 196.93 10.4648 196.402 10.957C195.887 11.4492 195.201 11.6953 194.346 11.6953C193.49 11.6953 192.799 11.4492 192.271 10.957C191.756 10.4648 191.498 9.83203 191.498 9.05859ZM211.396 27.7441C211.396 27.123 211.086 26.6367 210.465 26.2852C209.855 25.9219 208.871 25.5996 207.512 25.3184C202.988 24.3691 200.727 22.4473 200.727 19.5527C200.727 17.8652 201.424 16.459 202.818 15.334C204.225 14.1973 206.059 13.6289 208.32 13.6289C210.734 13.6289 212.662 14.1973 214.104 15.334C215.557 16.4707 216.283 17.9473 216.283 19.7637H211.203C211.203 19.0371 210.969 18.4395 210.5 17.9707C210.031 17.4902 209.299 17.25 208.303 17.25C207.447 17.25 206.785 17.4434 206.316 17.8301C205.848 18.2168 205.613 18.709 205.613 19.3066C205.613 19.8691 205.877 20.3262 206.404 20.6777C206.943 21.0176 207.846 21.3164 209.111 21.5742C210.377 21.8203 211.443 22.1016 212.311 22.418C214.994 23.4023 216.336 25.1074 216.336 27.5332C216.336 29.2676 215.592 30.6738 214.104 31.752C212.615 32.8184 210.693 33.3516 208.338 33.3516C206.744 33.3516 205.326 33.0703 204.084 32.5078C202.854 31.9336 201.887 31.1543 201.184 30.1699C200.48 29.1738 200.129 28.1016 200.129 26.9531H204.945C204.992 27.8555 205.326 28.5469 205.947 29.0273C206.568 29.5078 207.4 29.748 208.443 29.748C209.416 29.748 210.148 29.5664 210.641 29.2031C211.145 28.8281 211.396 28.3418 211.396 27.7441Z" fill="#2E7546"/>
<path d="M18.332 32.2383C18.332 31.8173 17.9913 31.4766 17.5703 31.4766H8.42969C8.00866 31.4766 7.66797 31.8173 7.66797 32.2383C7.66797 32.6593 8.00866 33 8.42969 33H17.5703C17.9913 33 18.332 32.6593 18.332 32.2383Z" fill="#3E64C5"/>
<path d="M13 7C8.37987 7 4.62109 10.7588 4.62109 15.3789C4.62109 21.7151 12.1416 29.4101 12.4615 29.7299C12.6103 29.8787 12.8052 29.9531 13 29.9531C13.1948 29.9531 13.3898 29.8787 13.5385 29.7299C13.8584 29.4101 21.3789 21.7151 21.3789 15.3789C21.3789 10.7588 17.6201 7 13 7ZM18.2041 15.8014C17.9745 16.1464 17.504 16.2487 17.1478 16.0127L16.8085 15.7865V19.9492C16.8085 20.3702 16.4679 20.7109 16.0468 20.7109H9.95313C9.5321 20.7109 9.19141 20.3702 9.19141 19.9492V15.7865L8.85219 16.0127C8.50033 16.244 8.02801 16.1503 7.79589 15.8014C7.56229 15.4511 7.6568 14.9787 8.00714 14.7451L12.5775 11.6982C12.8333 11.5271 13.1666 11.5271 13.4225 11.6982L17.9928 14.7451C18.3432 14.9787 18.4377 15.4511 18.2041 15.8014Z" fill="#3E64C5"/>
<path d="M10.7148 14.771V19.1875H15.2852V14.771L13 13.2477L10.7148 14.771Z" fill="white"/>
</svg>
